<svg id="Group_16" data-name="Group 16" xmlns="http://www.w3.org/2000/svg" width="34" height="34" viewBox="0 0 34 34">
  <path id="Path_11" data-name="Path 11" d="M423.083,324.166a17,17,0,1,0-17-17,17,17,0,0,0,17,17" transform="translate(-406.084 -290.166)" fill="#030504"/>
  <path id="Path_12" data-name="Path 12" d="M418.98,304.286h1.759v-1.709a4.569,4.569,0,0,1,.566-2.635,3.13,3.13,0,0,1,2.73-1.28,11.063,11.063,0,0,1,3.152.316l-.44,2.605a5.935,5.935,0,0,0-1.416-.212c-.684,0-1.3.245-1.3.929v1.986h2.8l-.2,2.545h-2.608v8.839h-3.3v-8.839H418.98Z" transform="translate(-406.084 -290.166)" fill="#fff"/>
</svg>
