<svg id="Group_17" data-name="Group 17" xmlns="http://www.w3.org/2000/svg" width="34" height="34" viewBox="0 0 34 34">
  <path id="Path_14" data-name="Path 14" d="M369.084,324.166a17,17,0,1,0-17-17,17,17,0,0,0,17,17" transform="translate(-352.084 -290.166)" fill="#030504"/>
  <path id="Path_15" data-name="Path 15" d="M374.3,298.662H363.869a3.29,3.29,0,0,0-3.287,3.287v10.434a3.29,3.29,0,0,0,3.287,3.287H374.3a3.291,3.291,0,0,0,3.288-3.287V301.949A3.291,3.291,0,0,0,374.3,298.662Zm.944,1.96h.376V303.5l-2.874.009-.01-2.883Zm-8.587,4.8a2.988,2.988,0,1,1-.567,1.746A2.99,2.99,0,0,1,366.659,305.42Zm9.273,6.963a1.631,1.631,0,0,1-1.63,1.63H363.869a1.631,1.631,0,0,1-1.63-1.63V305.42h2.539a4.65,4.65,0,1,0,8.615,0h2.539Z" transform="translate(-352.084 -290.166)" fill="#fff"/>
</svg>
