<svg xmlns="http://www.w3.org/2000/svg" width="34.168" height="34.167" viewBox="0 0 34.168 34.167">
  <path id="Path_13" data-name="Path 13" d="M315,290.082a17.083,17.083,0,1,0,17.084,17.084A17.084,17.084,0,0,0,315,290.082Zm7.746,22.153c-1.649,1.414-5.469,2.372-7.556.788-.288-.22-.42-.925-.781-.657a28.686,28.686,0,0,1-2.508,7.416h-1.633l.039-.033a13.838,13.838,0,0,1,.062-3.97c.4-2.489,1.964-5.9,1.955-8.4,0-1.053-.573-2.21-.391-3.413.34-2.214,3.469-4.256,4.56-1.706,1.258,2.944-2.668,6.5-.52,8.532a3.212,3.212,0,0,0,2.474.525c4.519-.912,5.151-10.391,1.433-12.6-5.337-3.173-11.349,1.734-10.812,6.826.2,1.918,2.223,3.023.521,4.725-2.492-.989-3.406-2.788-3.387-5.644.043-6.07,5.667-9.885,11.854-9.188,4.022.454,7.424,3.687,7.815,7.35C326.222,306.058,325.124,310.2,322.746,312.235Z" transform="translate(-297.916 -290.082)" fill="#030504" fill-rule="evenodd"/>
</svg>
