<svg id="Group_18" data-name="Group 18" xmlns="http://www.w3.org/2000/svg" width="34" height="34" viewBox="0 0 34 34">
  <path id="Path_16" data-name="Path 16" d="M477.084,324.166a17,17,0,1,0-17-17,17,17,0,0,0,17,17" transform="translate(-460.084 -290.166)" fill="#030504"/>
  <path id="Path_17" data-name="Path 17" d="M477.268,298.662v4.3H481.3v2.669h-4.035v4.362a6.955,6.955,0,0,0,.156,1.9,1.288,1.288,0,0,0,.584.672,2.458,2.458,0,0,0,1.29.337,4.645,4.645,0,0,0,2.57-.84v2.684a10.183,10.183,0,0,1-1.974.719,8.316,8.316,0,0,1-1.911.208,6.632,6.632,0,0,1-2.062-.294,4.462,4.462,0,0,1-1.529-.84,3.037,3.037,0,0,1-.878-1.161,5.018,5.018,0,0,1-.244-1.78V305.63h-1.881v-2.406a5,5,0,0,0,1.718-.934,4.651,4.651,0,0,0,1.147-1.461,6.58,6.58,0,0,0,.6-2.167Z" transform="translate(-460.084 -290.166)" fill="#fff"/>
</svg>
